<?xml version="1.0" encoding="iso-8859-1"?>
<!-- Generator: Adobe Illustrator 19.0.0, SVG Export Plug-In . SVG Version: 6.00 Build 0)  -->
<svg version="1.1" id="Layer_1" xmlns="http://www.w3.org/2000/svg" xmlns:xlink="http://www.w3.org/1999/xlink" x="0px" y="0px"
	 viewBox="0 0 512 512" style="enable-background:new 0 0 512 512;" xml:space="preserve">
<g>
	<g>
		<path d="M276.95,50.427c-24.606-24.605-64.679-24.568-89.315,0.07L28.921,209.211c-24.645,24.643-24.676,64.711-0.07,89.319
			c12.29,12.287,28.438,18.43,44.594,18.43c16.19,0,32.39-6.168,44.721-18.502L276.88,139.744
			C301.525,115.101,301.556,75.035,276.95,50.427z M103.167,283.459c-16.376,16.371-42.984,16.4-59.318,0.07
			c-16.332-16.336-16.301-42.946,0.07-59.317l67.809-67.809l59.248,59.247L103.167,283.459z M261.882,124.743l-75.907,75.907
			l-59.248-59.247l75.907-75.905c8.201-8.2,18.966-12.3,29.723-12.3c10.723,0,21.441,4.076,29.596,12.229
			C278.284,81.762,278.253,108.372,261.882,124.743z"/>
	</g>
</g>
<g>
	<g>
		<path d="M392.953,384.72H168.498c-34.853,0-63.205,28.842-63.205,63.64S133.646,512,168.498,512h224.455
			c34.852,0,63.208-28.842,63.208-63.64S427.805,384.72,392.953,384.72z M264.707,490.787h-96.208
			c-23.155,0-41.992-19.326-41.992-42.427c0-23.101,18.836-42.427,41.992-42.427h96.208V490.787z M392.953,490.787H285.92v-84.854
			h107.033c23.156,0,41.994,19.326,41.994,42.427S416.109,490.787,392.953,490.787z"/>
	</g>
</g>
<g>
	<g>
		<path d="M490.169,26.915c-9.659-13.801-24.127-23.014-40.741-25.943c-16.573-2.924-33.325,0.8-47.142,10.49
			c-13.823,9.69-23.049,24.18-25.981,40.797l-38.977,221.047c-6.052,34.319,16.904,67.159,51.174,73.203
			c3.685,0.65,7.352,0.963,10.972,0.963c30.041-0.003,56.752-21.62,62.154-52.251l38.975-221.046
			C503.539,57.511,499.833,40.727,490.169,26.915z M440.735,291.538c-4.021,22.801-25.802,38.099-48.551,34.078
			c-22.749-4.011-37.986-25.828-33.964-48.628l16.653-94.437l82.513,14.549L440.735,291.538z M479.71,70.493L461.07,176.207
			l-82.515-14.549l18.642-105.715c0,0,0,0,0-0.001c1.947-11.042,8.079-20.67,17.265-27.11c7.139-5.004,15.444-7.613,23.958-7.613
			c2.432,0,4.881,0.214,7.326,0.645c11.031,1.945,20.633,8.057,27.043,17.214C479.208,48.25,481.665,59.406,479.71,70.493z"/>
	</g>
</g>
<g>
</g>
<g>
</g>
<g>
</g>
<g>
</g>
<g>
</g>
<g>
</g>
<g>
</g>
<g>
</g>
<g>
</g>
<g>
</g>
<g>
</g>
<g>
</g>
<g>
</g>
<g>
</g>
<g>
</g>
</svg>
