<?xml version='1.0' encoding='iso-8859-1'?>
<svg version="1.1" xmlns="http://www.w3.org/2000/svg" viewBox="0 0 463 463" xmlns:xlink="http://www.w3.org/1999/xlink" enable-background="new 0 0 463 463">
  <path d="m439.5,224h-8.5v-104.5c0-8.547-6.953-15.5-15.5-15.5h-39.319c-3.158,0-6.102-0.827-8.513-2.392-28.577-18.54-79.481-29.608-136.168-29.608s-107.591,11.068-136.168,29.608c-2.411,1.564-5.354,2.392-8.513,2.392h-39.319c-8.547,0-15.5,6.953-15.5,15.5v104.5h-8.5c-12.958,0-23.5,10.542-23.5,23.5v16c0,10.336 6.71,19.128 16,22.266v65.734c0,10.336 6.71,19.128 16,22.266v9.734c0,4.143 3.358,7.5 7.5,7.5s7.5-3.357 7.5-7.5v-8.5h369v8.5c0,4.143 3.358,7.5 7.5,7.5s7.5-3.357 7.5-7.5v-9.734c9.29-3.138 16-11.93 16-22.266v-65.734c9.29-3.138 16-11.93 16-22.266v-16c0-12.958-10.542-23.5-23.5-23.5zm-392.5-104.5c0-0.275 0.224-0.5 0.5-0.5h39.319c6.063,0 11.83-1.662 16.677-4.808 25.853-16.772 74.901-27.192 128.004-27.192s102.151,10.42 128.003,27.192c4.848,3.146 10.614,4.808 16.677,4.808h39.32c0.276,0 0.5,0.225 0.5,0.5v104.5h-21.681c2.965-4.802 4.681-10.454 4.681-16.5v-32c0-17.369-14.131-31.5-31.5-31.5h-96c-17.369,0-31.5,14.131-31.5,31.5v32c0,6.046 1.716,11.698 4.681,16.5h-26.363c2.965-4.802 4.681-10.454 4.681-16.5v-32c0-17.369-14.131-31.5-31.5-31.5h-96c-17.368,0-31.499,14.131-31.499,31.5v32c0,6.046 1.716,11.698 4.681,16.5h-21.681v-104.5zm208,88v-32c0-9.098 7.402-16.5 16.5-16.5h96c9.098,0 16.5,7.402 16.5,16.5v32c0,9.098-7.402,16.5-16.5,16.5h-96c-9.098,0-16.5-7.402-16.5-16.5zm-176,0v-32c0-9.098 7.402-16.5 16.5-16.5h96c9.098,0 16.5,7.402 16.5,16.5v32c0,9.098-7.402,16.5-16.5,16.5h-96c-9.098,0-16.5-7.402-16.5-16.5zm344.5,152.5h-384c-4.687,0-8.5-3.813-8.5-8.5v-64.5h401v64.5c0,4.687-3.813,8.5-8.5,8.5zm24.5-96.5c0,4.687-3.813,8.5-8.5,8.5h-416c-4.687,0-8.5-3.813-8.5-8.5v-16c0-4.687 3.813-8.5 8.5-8.5h16 56 96 80 96 56 16c4.687,0 8.5,3.813 8.5,8.5v16z"/>
</svg>
