<?xml version="1.0" encoding="iso-8859-1"?>
<!-- Generator: Adobe Illustrator 19.0.0, SVG Export Plug-In . SVG Version: 6.00 Build 0)  -->
<svg version="1.1" id="Layer_1" xmlns="http://www.w3.org/2000/svg" xmlns:xlink="http://www.w3.org/1999/xlink" x="0px" y="0px"
	 viewBox="0 0 512 512" style="enable-background:new 0 0 512 512;" xml:space="preserve">
<g>
	<g>
		<path d="M389.376,0H122.624c-5.633,0-10.199,4.567-10.199,10.199v491.602c0,5.632,4.566,10.199,10.199,10.199h266.753
			c5.632,0,10.199-4.567,10.199-10.199V10.199C399.576,4.567,395.009,0,389.376,0z M297.924,491.602h-31.726v-31.193
			c0-5.632-4.567-10.199-10.199-10.199c-5.633,0-10.199,4.567-10.199,10.199v31.193h-31.726v-85.383h83.85V491.602z
			 M379.176,491.602h-60.854V396.02c0-5.632-4.567-10.199-10.199-10.199H203.875c-5.633,0-10.199,4.567-10.199,10.199v95.582
			h-60.855V139.794h246.355V491.602z M177.792,119.396V65.275h42.968v54.121H177.792z M291.239,119.396V65.275h42.968v54.121
			H291.239z M379.177,119.396h-24.572v-64.32c0-5.632-4.567-10.199-10.199-10.199H281.04c-5.632,0-10.199,4.567-10.199,10.199v64.32
			h-29.682v-64.32c0-5.632-4.566-10.199-10.199-10.199h-63.367c-5.633,0-10.199,4.567-10.199,10.199v64.32h-24.572V20.398h0.001
			h246.355V119.396z"/>
	</g>
</g>
<g>
	<g>
		<path d="M230.959,163.187h-63.367c-5.633,0-10.199,4.567-10.199,10.199v63.367c0,5.632,4.566,10.199,10.199,10.199h63.367
			c5.633,0,10.199-4.567,10.199-10.199v-63.367C241.159,167.754,236.592,163.187,230.959,163.187z M220.76,226.554h-42.968v-42.968
			h42.968V226.554z"/>
	</g>
</g>
<g>
	<g>
		<path d="M344.406,163.187H281.04c-5.632,0-10.199,4.567-10.199,10.199v63.367c0,5.632,4.567,10.199,10.199,10.199h63.367
			c5.632,0,10.199-4.567,10.199-10.199v-63.367C354.605,167.754,350.038,163.187,344.406,163.187z M334.207,226.554h-42.968v-42.968
			h42.968V226.554z"/>
	</g>
</g>
<g>
	<g>
		<path d="M230.959,276.267h-63.367c-5.633,0-10.199,4.567-10.199,10.199v63.367c0,5.632,4.566,10.199,10.199,10.199h63.367
			c5.633,0,10.199-4.567,10.199-10.199v-63.367C241.159,280.834,236.592,276.267,230.959,276.267z M220.76,339.633h-42.968v-42.968
			h42.968V339.633z"/>
	</g>
</g>
<g>
	<g>
		<path d="M344.406,276.267H281.04c-5.632,0-10.199,4.567-10.199,10.199v63.367c0,5.632,4.567,10.199,10.199,10.199h63.367
			c5.632,0,10.199-4.567,10.199-10.199v-63.367C354.605,280.834,350.038,276.267,344.406,276.267z M334.207,339.633h-42.968v-42.968
			h42.968V339.633z"/>
	</g>
</g>
<g>
	<g>
		<path d="M255.999,418.526c-5.633,0-10.199,4.567-10.199,10.199v1.022c0,5.632,4.566,10.199,10.199,10.199
			c5.632,0,10.199-4.567,10.199-10.199v-1.022C266.199,423.093,261.632,418.526,255.999,418.526z"/>
	</g>
</g>
<g>
</g>
<g>
</g>
<g>
</g>
<g>
</g>
<g>
</g>
<g>
</g>
<g>
</g>
<g>
</g>
<g>
</g>
<g>
</g>
<g>
</g>
<g>
</g>
<g>
</g>
<g>
</g>
<g>
</g>
</svg>
