<?xml version="1.0" encoding="iso-8859-1"?>
<!-- Generator: Adobe Illustrator 19.0.0, SVG Export Plug-In . SVG Version: 6.00 Build 0)  -->
<svg version="1.1" id="Layer_1" xmlns="http://www.w3.org/2000/svg" xmlns:xlink="http://www.w3.org/1999/xlink" x="0px" y="0px"
	 viewBox="0 0 512 512" style="enable-background:new 0 0 512 512;" xml:space="preserve">
<g>
	<g>
		<path d="M430.01,147.202c0.001,0,0.011-0.003,0.011-0.003l-57.617-93.896V32.097C372.404,14.398,358.005,0,340.307,0H170.6
			c-17.699,0-32.098,14.398-32.098,32.097V53.35l-56.566,93.921c-0.957,1.589-1.463,3.408-1.463,5.262v349.268
			c0,5.632,4.567,10.199,10.199,10.199h330.654c5.632,0,10.199-4.567,10.199-10.199V152.534
			C431.526,150.577,430.965,148.755,430.01,147.202z M158.901,32.097c0-6.45,5.249-11.698,11.7-11.698h169.707
			c6.45,0,11.698,5.249,11.698,11.699v13.888H158.901V32.097z M197.626,491.602h-96.754V155.367l47.91-79.55l48.844,79.597V491.602z
			 M166.927,66.384h189.569l46.606,75.951H213.534L166.927,66.384z M411.128,491.602H218.025V162.733h193.103V491.602z"/>
	</g>
</g>
<g>
	<g>
		<path d="M384.101,227.735h-139.05c-5.632,0-10.199,4.567-10.199,10.199v106.204c0,5.632,4.566,10.199,10.199,10.199h139.05
			c5.632,0,10.199-4.567,10.199-10.199V237.934C394.3,232.302,389.733,227.735,384.101,227.735z M373.902,333.939H255.25v-85.806
			h118.651V333.939z"/>
	</g>
</g>
<g>
	<g>
		<path d="M384.101,373.355h-6.568c-5.632,0-10.199,4.567-10.199,10.199c0,5.632,4.567,10.199,10.199,10.199h6.568
			c5.632,0,10.199-4.567,10.199-10.199C394.3,377.922,389.733,373.355,384.101,373.355z"/>
	</g>
</g>
<g>
	<g>
		<path d="M334.832,373.355h-89.781c-5.632,0-10.199,4.567-10.199,10.199c0,5.632,4.566,10.199,10.199,10.199h89.781
			c5.632,0,10.199-4.567,10.199-10.199C345.031,377.922,340.464,373.355,334.832,373.355z"/>
	</g>
</g>
<g>
</g>
<g>
</g>
<g>
</g>
<g>
</g>
<g>
</g>
<g>
</g>
<g>
</g>
<g>
</g>
<g>
</g>
<g>
</g>
<g>
</g>
<g>
</g>
<g>
</g>
<g>
</g>
<g>
</g>
</svg>
