<?xml version="1.0" encoding="iso-8859-1"?>
<!-- Generator: Adobe Illustrator 19.0.0, SVG Export Plug-In . SVG Version: 6.00 Build 0)  -->
<svg version="1.1" id="Layer_1" xmlns="http://www.w3.org/2000/svg" xmlns:xlink="http://www.w3.org/1999/xlink" x="0px" y="0px"
	 viewBox="0 0 512 512" style="enable-background:new 0 0 512 512;" xml:space="preserve">
<g>
	<g>
		<path d="M488.727,209.455h-69.818c-6.982,0-11.636,4.655-11.636,11.636c0,6.982,4.655,11.636,11.636,11.636h58.182v209.455
			H314.182V384c0-32.582-25.6-58.182-58.182-58.182c-32.582,0-58.182,25.6-58.182,58.182v58.182H34.909V232.727h58.182
			c6.982,0,11.636-4.655,11.636-11.636c0-6.982-4.655-11.636-11.636-11.636H23.273c-6.982,0-11.636,4.655-11.636,11.636v232.727
			c0,6.982,4.655,11.636,11.636,11.636h465.455c6.982,0,11.636-4.655,11.636-11.636V221.091
			C500.364,214.109,495.709,209.455,488.727,209.455z M290.909,442.182h-69.818V384c0-19.782,15.127-34.909,34.909-34.909
			c19.782,0,34.909,15.127,34.909,34.909V442.182z"/>
	</g>
</g>
<g>
	<g>
		<path d="M139.636,174.545c-6.982,0-11.636,4.655-11.636,11.636v221.091c0,6.982,4.655,11.636,11.636,11.636
			s11.636-4.655,11.636-11.636V186.182C151.273,179.2,146.618,174.545,139.636,174.545z"/>
	</g>
</g>
<g>
	<g>
		<path d="M372.364,174.545c-6.982,0-11.636,4.655-11.636,11.636v221.091c0,6.982,4.655,11.636,11.636,11.636
			S384,414.255,384,407.273V186.182C384,179.2,379.345,174.545,372.364,174.545z"/>
	</g>
</g>
<g>
	<g>
		<path d="M399.127,140.8L267.636,96.582V23.273H307.2l-3.491,6.982c-1.164,3.491-1.164,6.982,0,10.473l3.491,5.818h-16.291
			c-6.982,0-11.636,4.655-11.636,11.636s4.655,11.636,11.636,11.636h34.909c3.491,0,8.146-2.327,10.473-5.818
			c2.327-3.491,2.327-8.145,0-11.636l-9.309-17.455l9.309-18.618c2.327-3.491,1.164-8.145,0-11.636S329.309,0,325.818,0H256
			c-6.982,0-11.636,4.655-11.636,11.636v84.945L112.873,140.8c-5.818,2.327-9.309,8.145-6.982,15.127
			c1.164,4.655,8.145,8.145,13.964,5.818L256,117.527l136.145,45.382c1.164,0,2.327,1.164,3.491,1.164
			c4.655,0,9.309-3.491,10.473-8.145C408.436,150.109,404.945,143.127,399.127,140.8z"/>
	</g>
</g>
<g>
	<g>
		<path d="M197.818,186.182c-6.982,0-11.636,4.655-11.636,11.636v23.273c0,6.982,4.655,11.636,11.636,11.636
			s11.636-4.655,11.636-11.636v-23.273C209.455,190.836,204.8,186.182,197.818,186.182z"/>
	</g>
</g>
<g>
	<g>
		<path d="M256,186.182c-6.982,0-11.636,4.655-11.636,11.636v23.273c0,6.982,4.655,11.636,11.636,11.636
			c6.982,0,11.636-4.655,11.636-11.636v-23.273C267.636,190.836,262.982,186.182,256,186.182z"/>
	</g>
</g>
<g>
	<g>
		<path d="M314.182,186.182c-6.982,0-11.636,4.655-11.636,11.636v23.273c0,6.982,4.655,11.636,11.636,11.636
			s11.636-4.655,11.636-11.636v-23.273C325.818,190.836,321.164,186.182,314.182,186.182z"/>
	</g>
</g>
<g>
	<g>
		<path d="M197.818,267.636c-6.982,0-11.636,4.655-11.636,11.636v23.273c0,6.982,4.655,11.636,11.636,11.636
			s11.636-4.655,11.636-11.636v-23.273C209.455,272.291,204.8,267.636,197.818,267.636z"/>
	</g>
</g>
<g>
	<g>
		<path d="M256,267.636c-6.982,0-11.636,4.655-11.636,11.636v23.273c0,6.982,4.655,11.636,11.636,11.636
			c6.982,0,11.636-4.655,11.636-11.636v-23.273C267.636,272.291,262.982,267.636,256,267.636z"/>
	</g>
</g>
<g>
	<g>
		<path d="M314.182,267.636c-6.982,0-11.636,4.655-11.636,11.636v23.273c0,6.982,4.655,11.636,11.636,11.636
			s11.636-4.655,11.636-11.636v-23.273C325.818,272.291,321.164,267.636,314.182,267.636z"/>
	</g>
</g>
<g>
	<g>
		<path d="M430.545,267.636c-6.982,0-11.636,4.655-11.636,11.636v23.273c0,6.982,4.655,11.636,11.636,11.636
			s11.636-4.655,11.636-11.636v-23.273C442.182,272.291,437.527,267.636,430.545,267.636z"/>
	</g>
</g>
<g>
	<g>
		<path d="M81.455,267.636c-6.982,0-11.636,4.655-11.636,11.636v23.273c0,6.982,4.655,11.636,11.636,11.636
			s11.636-4.655,11.636-11.636v-23.273C93.091,272.291,88.436,267.636,81.455,267.636z"/>
	</g>
</g>
<g>
	<g>
		<path d="M430.545,360.727c-6.982,0-11.636,4.655-11.636,11.636v23.273c0,6.982,4.655,11.636,11.636,11.636
			s11.636-4.655,11.636-11.636v-23.273C442.182,365.382,437.527,360.727,430.545,360.727z"/>
	</g>
</g>
<g>
	<g>
		<path d="M81.455,360.727c-6.982,0-11.636,4.655-11.636,11.636v23.273c0,6.982,4.655,11.636,11.636,11.636
			s11.636-4.655,11.636-11.636v-23.273C93.091,365.382,88.436,360.727,81.455,360.727z"/>
	</g>
</g>
<g>
	<g>
		<path d="M442.182,488.727H69.818c-6.982,0-11.636,4.655-11.636,11.636S62.836,512,69.818,512h372.364
			c6.982,0,11.636-4.655,11.636-11.636S449.164,488.727,442.182,488.727z"/>
	</g>
</g>
<g>
</g>
<g>
</g>
<g>
</g>
<g>
</g>
<g>
</g>
<g>
</g>
<g>
</g>
<g>
</g>
<g>
</g>
<g>
</g>
<g>
</g>
<g>
</g>
<g>
</g>
<g>
</g>
<g>
</g>
</svg>
