<?xml version="1.0" encoding="iso-8859-1"?>
<!-- Generator: Adobe Illustrator 19.0.0, SVG Export Plug-In . SVG Version: 6.00 Build 0)  -->
<svg version="1.1" id="Capa_1" xmlns="http://www.w3.org/2000/svg" xmlns:xlink="http://www.w3.org/1999/xlink" x="0px" y="0px"
	 viewBox="0 0 511 511" style="enable-background:new 0 0 511 511;" xml:space="preserve">
<g>
	<path d="M367.5,272h-224c-12.958,0-23.5,10.542-23.5,23.5v144c0,12.958,10.542,23.5,23.5,23.5h224c12.958,0,23.5-10.542,23.5-23.5
		v-144C391,282.542,380.458,272,367.5,272z M143.5,287h224c4.687,0,8.5,3.813,8.5,8.5V320H135v-24.5
		C135,290.813,138.813,287,143.5,287z M175.5,367c4.687,0,8.5,3.813,8.5,8.5V400h-17v-24.5C167,370.813,170.813,367,175.5,367z
		 M367.5,448h-224c-4.687,0-8.5-3.813-8.5-8.5V335h33v18.234c-9.29,3.138-16,11.93-16,22.266v32c0,4.142,3.358,7.5,7.5,7.5h32
		c4.142,0,7.5-3.358,7.5-7.5v-32c0-10.336-6.71-19.128-16-22.266V335h193v104.5C376,444.187,372.187,448,367.5,448z"/>
	<path d="M183.5,231h144c4.142,0,7.5-3.358,7.5-7.5v-73.664c0-10.654-5.172-20.428-13.835-26.145
		C301.643,110.809,278.937,104,255.5,104s-46.143,6.809-65.665,19.692c-8.663,5.716-13.835,15.49-13.835,26.145V223.5
		C176,227.642,179.358,231,183.5,231z M191,149.836c0-5.599,2.653-10.692,7.097-13.625C215.16,124.952,235.009,119,255.5,119
		s40.34,5.952,57.403,17.211c4.444,2.933,7.097,8.026,7.097,13.625V216H191V149.836z"/>
	<path d="M279.5,136h-48c-4.142,0-7.5,3.358-7.5,7.5s3.358,7.5,7.5,7.5h48c4.142,0,7.5-3.358,7.5-7.5S283.642,136,279.5,136z"/>
	<path d="M447.5,272H439v-48.5c0-26.727-5.748-52.135-16.065-75.06c0.039-0.309,0.065-0.621,0.065-0.94v-84
		c0-12.958-10.542-23.5-23.5-23.5h-24C362.542,40,352,50.542,352,63.5v3.991c-7.953-4.937-16.302-9.292-25-12.986V31.5
		C327,14.131,312.869,0,295.5,0h-80C198.131,0,184,14.131,184,31.5v23.005c-8.698,3.694-17.047,8.049-25,12.986V63.5
		c0-12.958-10.542-23.5-23.5-23.5h-24C98.542,40,88,50.542,88,63.5v84c0,0.319,0.026,0.632,0.065,0.94
		C77.748,171.365,72,196.773,72,223.5V272h-8.5C50.542,272,40,282.542,40,295.5v144c0,12.958,10.542,23.5,23.5,23.5h12.487
		c9.744,27.913,36.319,48,67.513,48h224c31.194,0,57.769-20.087,67.513-48H447.5c12.958,0,23.5-10.542,23.5-23.5v-144
		C471,282.542,460.458,272,447.5,272z M447.5,287c4.687,0,8.5,3.813,8.5,8.5V320h-17v-33H447.5z M255.5,55
		c90.397,0,164.386,71.556,168.324,161h-9.164c-4.354,0-7.979-3.388-8.433-7.88c-3.748-37.149-21.088-71.502-48.826-96.729
		C329.472,85.989,293.282,72,255.5,72s-73.972,13.989-101.902,39.391c-27.738,25.227-45.078,59.58-48.826,96.729
		c-0.454,4.493-4.079,7.88-8.433,7.88h-9.164C91.114,126.556,165.103,55,255.5,55z M367,63.5c0-4.687,3.813-8.5,8.5-8.5h24
		c4.687,0,8.5,3.813,8.5,8.5v58.054c-11.202-16.703-25.076-31.466-41-43.687V63.5z M199,31.5c0-9.098,7.402-16.5,16.5-16.5h80
		c9.098,0,16.5,7.402,16.5,16.5v17.412C294.193,43.135,275.207,40,255.5,40s-38.693,3.135-56.5,8.912V31.5z M103,63.5
		c0-4.687,3.813-8.5,8.5-8.5h24c4.687,0,8.5,3.813,8.5,8.5v14.367c-15.924,12.221-29.798,26.984-41,43.687V63.5z M63.5,287H72v33H55
		v-24.5C55,290.813,58.813,287,63.5,287z M63.5,448c-4.687,0-8.5-3.813-8.5-8.5V335h17v104.5c0,2.878,0.191,5.71,0.523,8.5H63.5z
		 M367.5,496h-224c-31.154,0-56.5-25.346-56.5-56.5V231h9.339c12.086,0,22.127-9.189,23.356-21.375
		c3.376-33.46,19-64.406,43.995-87.138C188.853,99.603,221.458,87,255.5,87s66.647,12.603,91.81,35.488
		c24.995,22.731,40.619,53.678,43.995,87.138c1.229,12.186,11.27,21.375,23.356,21.375H424v208.5C424,470.654,398.654,496,367.5,496
		z M447.5,448h-9.023c0.332-2.79,0.523-5.622,0.523-8.5V335h17v104.5C456,444.187,452.187,448,447.5,448z"/>
</g>
<g>
</g>
<g>
</g>
<g>
</g>
<g>
</g>
<g>
</g>
<g>
</g>
<g>
</g>
<g>
</g>
<g>
</g>
<g>
</g>
<g>
</g>
<g>
</g>
<g>
</g>
<g>
</g>
<g>
</g>
</svg>
